<svg style="width:300px;height:300px" xmlns="http://www.w3.org/2000/svg" xmlns:xlink="http://www.w3.org/1999/xlink" zoomAndPan="magnify" viewBox="0 0 375 374.999991" preserveAspectRatio="xMidYMid meet" version="1.0"><defs><clipPath id="id1"><path d="M 92.101562 62.738281 L 282.976562 62.738281 L 282.976562 229.957031 L 92.101562 229.957031 Z M 92.101562 62.738281 " clip-rule="nonzero"/></clipPath><clipPath id="id2"><path d="M 118.054688 140.648438 L 260 140.648438 L 260 312.488281 L 118.054688 312.488281 Z M 118.054688 140.648438 " clip-rule="nonzero"/></clipPath></defs><g clip-path="url(#id1)"><path fill="#ff005f" d="M 279.054688 62.738281 C 279.054688 62.738281 302.621094 124.519531 234.203125 139.015625 C 165.789062 153.507812 92.742188 139.753906 114.332031 229.914062 C 114.332031 229.914062 67.050781 158.902344 110.402344 116.398438 C 157.421875 70.292969 280.765625 120.414062 279.054688 62.738281 " fill-opacity="1" fill-rule="nonzero"/></g><g clip-path="url(#id2)"><path fill="#ff005f" d="M 259.800781 140.941406 C 214.859375 171.132812 182.855469 155.625 142.324219 178.535156 C 127.53125 186.894531 121.007812 202.5 119.097656 220.191406 C 119.03125 220.738281 118.976562 221.296875 118.929688 221.859375 C 118.03125 231.691406 118.5 242.113281 119.726562 252.25 C 123.546875 283.734375 134.664062 312.492188 134.664062 312.492188 C 124.125 216.738281 159.796875 214.953125 212.152344 203.878906 C 242.660156 197.425781 253.789062 177.125 257.769531 161.300781 C 260.617188 149.972656 259.800781 140.941406 259.800781 140.941406 " fill-opacity="1" fill-rule="nonzero"/></g></svg>
